<svg width="143" height="21" viewBox="0 0 143 21" fill="none" xmlns="http://www.w3.org/2000/svg"><path d="M55.742 15.248L59.61 2.416h3.914l-5.941 17.062h-3.668L47.996 2.416h3.902l3.844 12.832zm16.442 2.941c-.836 1.016-1.993 1.524-3.47 1.524-1.358 0-2.398-.391-3.116-1.172-.711-.782-1.075-1.926-1.09-3.434V6.8h3.386v8.191c0 1.32.602 1.98 1.805 1.98 1.149 0 1.938-.398 2.367-1.195V6.8h3.399v12.68h-3.188l-.093-1.29zm11.672 1.524c-1.86 0-3.375-.57-4.547-1.711-1.165-1.14-1.746-2.66-1.746-4.559v-.328c0-1.273.246-2.41.738-3.41.492-1.008 1.187-1.781 2.086-2.32.906-.547 1.937-.82 3.094-.82 1.734 0 3.097.546 4.09 1.64 1 1.094 1.5 2.644 1.5 4.652v1.383h-8.075c.11.828.438 1.492.985 1.992.554.5 1.253.75 2.097.75 1.305 0 2.324-.473 3.059-1.418l1.664 1.863c-.508.72-1.195 1.282-2.063 1.688-.867.398-1.828.598-2.882.598zm-.387-10.407c-.672 0-1.219.227-1.64.68-.415.453-.68 1.102-.798 1.945h4.711v-.27c-.015-.75-.219-1.327-.61-1.734-.39-.414-.945-.62-1.663-.62zm18.562 5.567l1.664-8.074h3.27l-3.235 12.68h-2.835l-2.403-7.981-2.402 7.98h-2.824L90.03 6.798h3.27l1.652 8.063 2.32-8.062h2.45l2.308 8.074zm6.094-1.852c0-1.258.242-2.379.727-3.363.484-.984 1.179-1.746 2.086-2.285.914-.54 1.972-.809 3.175-.809 1.711 0 3.106.524 4.184 1.57 1.086 1.047 1.691 2.47 1.816 4.266l.024.867c0 1.946-.543 3.508-1.629 4.688-1.086 1.172-2.543 1.758-4.371 1.758-1.828 0-3.289-.586-4.383-1.758-1.086-1.172-1.629-2.766-1.629-4.781v-.153zm3.387.246c0 1.204.226 2.125.679 2.766.454.633 1.102.95 1.946.95.82 0 1.461-.313 1.922-.938.461-.633.691-1.64.691-3.024 0-1.18-.23-2.094-.691-2.742-.461-.648-1.11-.973-1.946-.973-.828 0-1.468.325-1.922.973-.453.64-.679 1.637-.679 2.988zm17.836-3.293a9.212 9.212 0 00-1.219-.093c-1.281 0-2.121.433-2.52 1.3v8.297h-3.386V6.798h3.199l.094 1.512c.679-1.164 1.621-1.746 2.824-1.746.375 0 .726.051 1.055.153l-.047 3.257zm6.246 4.418l-1.219 1.22v3.866h-3.387v-18h3.387v9.973l.656-.844 3.246-3.808h4.067l-4.582 5.285 4.98 7.394h-3.89l-3.258-5.086z" fill="#1E88E5"/><path d="M9.647 15.289L13.773 0h5.116l-6.51 21H6.914L0 0h5.535l4.112 15.289z" fill="#0B3457"/><path d="M31.95 13.168L34.438 0h5.183l-4.603 21h-5.422L26.692 9.029 23.846 21H18.44L13.821 0h5.199l2.488 13.168L24.487 0h4.439l3.024 13.168z" fill="#005CAC"/></svg>