<svg width="147" height="23" viewBox="0 0 147 23" fill="none" xmlns="http://www.w3.org/2000/svg"><path d="M59.828 15.77l3.867-12.832h3.914L61.668 20H58L52.082 2.937h3.902l3.844 12.833zm16.441 2.94c-.835 1.017-1.992 1.524-3.468 1.524-1.36 0-2.399-.39-3.117-1.172-.711-.78-1.075-1.925-1.09-3.433V7.32h3.387v8.192c0 1.32.601 1.98 1.804 1.98 1.149 0 1.938-.398 2.367-1.195V7.32h3.399V20h-3.188l-.094-1.29zm11.672 1.524c-1.859 0-3.375-.57-4.547-1.71-1.163-1.141-1.746-2.66-1.746-4.56v-.327c0-1.274.246-2.41.739-3.41.492-1.008 1.187-1.782 2.086-2.32.906-.548 1.937-.821 3.093-.821 1.735 0 3.098.547 4.09 1.64 1 1.094 1.5 2.645 1.5 4.653v1.383h-8.074c.11.828.438 1.492.984 1.992.555.5 1.254.75 2.098.75 1.305 0 2.324-.473 3.059-1.418l1.664 1.863c-.508.719-1.196 1.281-2.063 1.688-.867.398-1.828.597-2.883.597zm-.386-10.406c-.672 0-1.22.227-1.64.68-.415.453-.68 1.101-.798 1.945h4.711v-.27c-.016-.75-.219-1.328-.61-1.734-.39-.414-.945-.62-1.663-.62zm18.562 5.567l1.664-8.075h3.27L107.816 20h-2.836l-2.402-7.98-2.402 7.98h-2.824L94.117 7.32h3.27l1.652 8.063 2.32-8.063h2.45l2.308 8.075zm6.094-1.852c0-1.258.242-2.379.727-3.363.484-.985 1.179-1.746 2.085-2.285.915-.54 1.973-.81 3.176-.81 1.711 0 3.106.524 4.184 1.571 1.086 1.047 1.691 2.469 1.816 4.266l.024.867c0 1.945-.543 3.508-1.629 4.688-1.086 1.171-2.543 1.757-4.371 1.757-1.828 0-3.289-.586-4.383-1.757-1.086-1.172-1.629-2.766-1.629-4.782v-.152zm3.387.246c0 1.203.226 2.125.679 2.766.453.633 1.102.949 1.946.949.82 0 1.461-.313 1.922-.938.46-.632.691-1.64.691-3.023 0-1.18-.231-2.094-.691-2.742-.461-.649-1.11-.973-1.946-.973-.828 0-1.469.324-1.922.973-.453.64-.679 1.636-.679 2.988zm17.836-3.293a9.213 9.213 0 00-1.219-.094c-1.281 0-2.121.434-2.52 1.301V20h-3.386V7.32h3.199l.094 1.512c.679-1.164 1.621-1.746 2.824-1.746.375 0 .726.05 1.054.152l-.046 3.258zm6.246 4.418l-1.219 1.219V20h-3.387V2h3.387v9.973l.656-.844 3.246-3.809h4.067l-4.582 5.285 4.98 7.395h-3.89l-3.258-5.086z" fill="#BBDEFB"/><path d="M10.47 16.744L14.946 0H20.5l-7.066 23h-5.93L0 0h6.007l4.462 16.744z" fill="#0B3457"/><path d="M34.674 14.422L37.374 0H43l-4.995 23H32.12L28.968 9.889 25.88 23h-5.868L15 0h5.642l2.7 14.422L26.575 0h4.818l3.281 14.422z" fill="#005CAC"/></svg>