<svg width="20" height="20" viewBox="0 0 20 20" fill="none" xmlns="http://www.w3.org/2000/svg"><path fill-rule="evenodd" clip-rule="evenodd" d="M10 18a8 8 0 100-16 8 8 0 000 16zm0 2c5.523 0 10-4.477 10-10S15.523 0 10 0 0 4.477 0 10s4.477 10 10 10z" fill="#E53935"/><path d="M10.732 11.986H9.217L9.051 5h1.855l-.174 6.986zM9 14.122c0-.258.09-.471.268-.639.179-.172.423-.258.732-.258.31 0 .553.086.732.258.179.168.268.38.268.64a.835.835 0 01-.26.625c-.175.168-.421.252-.74.252s-.565-.084-.74-.252a.834.834 0 01-.26-.626z" fill="#E53935"/></svg>